<svg id='icon' width="17" height="15" viewBox="0 0 17 15" xmlns="http://www.w3.org/2000/svg">
<path d="M10.6713 3.00003L16.375 3.00003V1.87503L10.6713 1.87503C10.5417 1.39838 10.2589 0.977603 9.86654 0.677612C9.47414 0.377621 8.99393 0.215088 8.5 0.215088C8.00607 0.215088 7.52586 0.377621 7.13346 0.677612C6.74106 0.977603 6.45828 1.39838 6.32875 1.87503L0.625 1.87503L0.625 3.00003L6.32875 3.00003C6.45828 3.47667 6.74106 3.89745 7.13346 4.19744C7.52586 4.49743 8.00607 4.65996 8.5 4.65996C8.99393 4.65996 9.47414 4.49743 9.86654 4.19744C10.2589 3.89745 10.5417 3.47667 10.6713 3.00003ZM7.375 2.43753C7.375 2.21502 7.44098 1.99751 7.5646 1.81251C7.68821 1.6275 7.86391 1.48331 8.06948 1.39816C8.27505 1.31301 8.50125 1.29073 8.71948 1.33414C8.93771 1.37755 9.13816 1.4847 9.2955 1.64203C9.45283 1.79936 9.55998 1.99982 9.60338 2.21805C9.64679 2.43628 9.62451 2.66248 9.53936 2.86804C9.45422 3.07361 9.31002 3.24931 9.12502 3.37293C8.94001 3.49655 8.7225 3.56253 8.5 3.56253C8.20163 3.56253 7.91548 3.444 7.70451 3.23302C7.49353 3.02204 7.375 2.73589 7.375 2.43753Z"/>
<path d="M6.17125 8.06254L16.375 8.06254V6.93754L6.17125 6.93754C6.04172 6.46089 5.75894 6.04011 5.36654 5.74012C4.97414 5.44013 4.49393 5.2776 4 5.2776C3.50607 5.2776 3.02586 5.44013 2.63346 5.74012C2.24106 6.04011 1.95828 6.46089 1.82875 6.93754H0.625L0.625 8.06254H1.82875C1.95828 8.53918 2.24106 8.95996 2.63346 9.25995C3.02586 9.55994 3.50607 9.72247 4 9.72247C4.49393 9.72247 4.97414 9.55994 5.36654 9.25995C5.75894 8.95996 6.04172 8.53918 6.17125 8.06254ZM2.875 7.50004C2.875 7.27753 2.94098 7.06003 3.0646 6.87502C3.18821 6.69001 3.36391 6.54582 3.56948 6.46067C3.77505 6.37552 4.00125 6.35324 4.21948 6.39665C4.43771 6.44006 4.63816 6.54721 4.7955 6.70454C4.95283 6.86188 5.05998 7.06233 5.10338 7.28056C5.14679 7.49879 5.12451 7.72499 5.03936 7.93056C4.95422 8.13612 4.81002 8.31182 4.62502 8.43544C4.44001 8.55906 4.2225 8.62504 4 8.62504C3.70163 8.62504 3.41548 8.50651 3.2045 8.29553C2.99353 8.08455 2.875 7.7984 2.875 7.50004Z"/>
<path d="M13 14.8125C13.4976 14.8109 13.9806 14.6444 14.3734 14.3391C14.7663 14.0338 15.0469 13.6068 15.1713 13.125H16.375V12H15.1713C15.0417 11.5234 14.7589 11.1026 14.3665 10.8026C13.9741 10.5026 13.4939 10.3401 13 10.3401C12.5061 10.3401 12.0259 10.5026 11.6335 10.8026C11.2411 11.1026 10.9583 11.5234 10.8288 12L0.625 12L0.625 13.125L10.8288 13.125C10.9531 13.6068 11.2337 14.0338 11.6266 14.3391C12.0194 14.6444 12.5024 14.8109 13 14.8125ZM11.875 12.5625C11.875 12.34 11.941 12.1225 12.0646 11.9375C12.1882 11.7525 12.3639 11.6083 12.5695 11.5232C12.775 11.438 13.0012 11.4157 13.2195 11.4592C13.4377 11.5026 13.6382 11.6097 13.7955 11.767C13.9528 11.9244 14.06 12.1248 14.1034 12.3431C14.1468 12.5613 14.1245 12.7875 14.0394 12.9931C13.9542 13.1986 13.81 13.3743 13.625 13.4979C13.44 13.6216 13.2225 13.6875 13 13.6875C12.7016 13.6875 12.4155 13.569 12.2045 13.358C11.9935 13.1471 11.875 12.8609 11.875 12.5625Z"/>
</svg>
